<svg width="55" height="16" viewBox="0 0 55 16" fill="none" xmlns="http://www.w3.org/2000/svg">
<path d="M0.599336 12.2991C1.05267 11.9391 1.25934 11.7724 1.21934 11.7991C2.526 10.7191 3.55267 9.8324 4.29934 9.13906C5.05934 8.44573 5.69934 7.71906 6.21934 6.95906C6.73934 6.19906 6.99934 5.45906 6.99934 4.73906C6.99934 4.19239 6.87267 3.76573 6.61934 3.45906C6.366 3.15239 5.986 2.99906 5.47934 2.99906C4.97267 2.99906 4.57267 3.19239 4.27934 3.57906C3.99934 3.9524 3.85934 4.48573 3.85934 5.17906H0.559336C0.586003 4.04573 0.826003 3.09906 1.27934 2.33906C1.746 1.57906 2.35267 1.01906 3.09934 0.659062C3.85934 0.299062 4.69934 0.119061 5.61934 0.119061C7.206 0.119061 8.39934 0.525728 9.19934 1.33906C10.0127 2.1524 10.4193 3.2124 10.4193 4.51906C10.4193 5.94573 9.93267 7.2724 8.95934 8.49906C7.986 9.7124 6.746 10.8991 5.23934 12.0591H10.6393V14.8391H0.599336V12.2991ZM12.1451 7.53906C12.1451 5.24573 12.5851 3.43906 13.4651 2.11906C14.3585 0.799061 15.7918 0.139061 17.7651 0.139061C19.7385 0.139061 21.1651 0.799061 22.0451 2.11906C22.9385 3.43906 23.3851 5.24573 23.3851 7.53906C23.3851 9.85906 22.9385 11.6791 22.0451 12.9991C21.1651 14.3191 19.7385 14.9791 17.7651 14.9791C15.7918 14.9791 14.3585 14.3191 13.4651 12.9991C12.5851 11.6791 12.1451 9.85906 12.1451 7.53906ZM20.0251 7.53906C20.0251 6.1924 19.8785 5.15906 19.5851 4.43906C19.2918 3.70573 18.6851 3.33906 17.7651 3.33906C16.8451 3.33906 16.2385 3.70573 15.9451 4.43906C15.6518 5.15906 15.5051 6.1924 15.5051 7.53906C15.5051 8.44573 15.5585 9.19906 15.6651 9.79906C15.7718 10.3857 15.9851 10.8657 16.3051 11.2391C16.6385 11.5991 17.1251 11.7791 17.7651 11.7791C18.4051 11.7791 18.8851 11.5991 19.2051 11.2391C19.5385 10.8657 19.7585 10.3857 19.8651 9.79906C19.9718 9.19906 20.0251 8.44573 20.0251 7.53906ZM25.192 7.53906C25.192 5.24573 25.632 3.43906 26.512 2.11906C27.4053 0.799061 28.8387 0.139061 30.812 0.139061C32.7853 0.139061 34.212 0.799061 35.092 2.11906C35.9853 3.43906 36.432 5.24573 36.432 7.53906C36.432 9.85906 35.9853 11.6791 35.092 12.9991C34.212 14.3191 32.7853 14.9791 30.812 14.9791C28.8387 14.9791 27.4053 14.3191 26.512 12.9991C25.632 11.6791 25.192 9.85906 25.192 7.53906ZM33.072 7.53906C33.072 6.1924 32.9253 5.15906 32.632 4.43906C32.3387 3.70573 31.732 3.33906 30.812 3.33906C29.892 3.33906 29.2853 3.70573 28.992 4.43906C28.6987 5.15906 28.552 6.1924 28.552 7.53906C28.552 8.44573 28.6053 9.19906 28.712 9.79906C28.8187 10.3857 29.032 10.8657 29.352 11.2391C29.6853 11.5991 30.172 11.7791 30.812 11.7791C31.452 11.7791 31.932 11.5991 32.252 11.2391C32.5853 10.8657 32.8053 10.3857 32.912 9.79906C33.0187 9.19906 33.072 8.44573 33.072 7.53906ZM37.9589 4.11906C37.9589 3.03906 38.2655 2.20573 38.8789 1.61906C39.5055 1.0324 40.3122 0.739062 41.2989 0.739062C42.2855 0.739062 43.0855 1.0324 43.6989 1.61906C44.3122 2.20573 44.6189 3.03906 44.6189 4.11906C44.6189 5.19906 44.3122 6.0324 43.6989 6.61906C43.0855 7.20573 42.2855 7.49906 41.2989 7.49906C40.3122 7.49906 39.5055 7.20573 38.8789 6.61906C38.2655 6.0324 37.9589 5.19906 37.9589 4.11906ZM51.5389 0.959061L43.8389 15.0391H40.5389L48.2389 0.959061H51.5389ZM41.2789 2.73906C40.6389 2.73906 40.3189 3.19906 40.3189 4.11906C40.3189 5.02573 40.6389 5.47906 41.2789 5.47906C41.5855 5.47906 41.8255 5.36573 41.9989 5.13906C42.1722 4.9124 42.2589 4.5724 42.2589 4.11906C42.2589 3.19906 41.9322 2.73906 41.2789 2.73906ZM47.4789 11.8791C47.4789 10.7991 47.7855 9.96573 48.3989 9.37906C49.0122 8.7924 49.8122 8.49906 50.7989 8.49906C51.7855 8.49906 52.5855 8.7924 53.1989 9.37906C53.8122 9.96573 54.1189 10.7991 54.1189 11.8791C54.1189 12.9591 53.8122 13.7924 53.1989 14.3791C52.5855 14.9657 51.7855 15.2591 50.7989 15.2591C49.8122 15.2591 49.0122 14.9657 48.3989 14.3791C47.7855 13.7924 47.4789 12.9591 47.4789 11.8791ZM50.7789 10.4991C50.4722 10.4991 50.2322 10.6124 50.0589 10.8391C49.8989 11.0657 49.8189 11.4124 49.8189 11.8791C49.8189 12.7857 50.1389 13.2391 50.7789 13.2391C51.0855 13.2391 51.3255 13.1257 51.4989 12.8991C51.6722 12.6724 51.7589 12.3324 51.7589 11.8791C51.7589 11.4257 51.6722 11.0857 51.4989 10.8591C51.3255 10.6191 51.0855 10.4991 50.7789 10.4991Z" fill="white"/>
</svg>
