<svg width="38" height="30" viewBox="0 0 38 30" fill="none" xmlns="http://www.w3.org/2000/svg">
<ellipse cx="18.8828" cy="14.7921" rx="18.6736" ry="14.3624" fill="#225C92"/>
<path d="M17.3726 9.45801H17.519V10.4199H17.436C17.0161 10.4199 16.6532 10.485 16.3472 10.6152C16.0444 10.7454 15.7954 10.9245 15.6001 11.1523C15.4048 11.3802 15.2583 11.6471 15.1606 11.9531C15.0662 12.2559 15.019 12.5781 15.019 12.9199V14.0381C15.019 14.3213 15.05 14.5719 15.1118 14.79C15.1737 15.0049 15.2599 15.1855 15.3706 15.332C15.4845 15.4753 15.6147 15.5843 15.7612 15.6592C15.9077 15.734 16.0656 15.7715 16.2349 15.7715C16.4106 15.7715 16.5701 15.7357 16.7134 15.6641C16.8566 15.5892 16.9787 15.4867 17.0796 15.3564C17.1805 15.2262 17.257 15.0716 17.3091 14.8926C17.3612 14.7135 17.3872 14.5182 17.3872 14.3066C17.3872 14.1048 17.3612 13.916 17.3091 13.7402C17.2603 13.5612 17.187 13.4049 17.0894 13.2715C16.9917 13.1348 16.8696 13.029 16.7231 12.9541C16.5799 12.876 16.4139 12.8369 16.2251 12.8369C15.9907 12.8369 15.7775 12.8923 15.5854 13.0029C15.3966 13.1136 15.2437 13.2585 15.1265 13.4375C15.0125 13.6133 14.9507 13.8005 14.9409 13.999L14.4917 13.8525C14.5177 13.5498 14.5845 13.278 14.6919 13.0371C14.8026 12.7962 14.9474 12.5911 15.1265 12.4219C15.3055 12.2526 15.5122 12.124 15.7466 12.0361C15.9842 11.945 16.2446 11.8994 16.5278 11.8994C16.8729 11.8994 17.1724 11.9645 17.4263 12.0947C17.6802 12.2249 17.8901 12.4023 18.0562 12.627C18.2254 12.8483 18.3507 13.1022 18.4321 13.3887C18.5168 13.6719 18.5591 13.9681 18.5591 14.2773C18.5591 14.6191 18.507 14.9382 18.4028 15.2344C18.2987 15.5273 18.1457 15.7845 17.9438 16.0059C17.7453 16.2272 17.5028 16.3997 17.2163 16.5234C16.9331 16.6471 16.6108 16.709 16.2495 16.709C15.8687 16.709 15.5285 16.6357 15.229 16.4893C14.9328 16.3428 14.6805 16.141 14.4722 15.8838C14.2671 15.6266 14.1108 15.3304 14.0034 14.9951C13.896 14.6598 13.8423 14.305 13.8423 13.9307V13.4424C13.8423 12.902 13.9106 12.3926 14.0474 11.9141C14.1841 11.4323 14.394 11.0075 14.6772 10.6396C14.9637 10.2718 15.3299 9.98372 15.7759 9.77539C16.2218 9.5638 16.7541 9.45801 17.3726 9.45801Z" fill="white"/>
</svg>
