<svg width="46" height="35" viewBox="0 0 46 35" fill="none" xmlns="http://www.w3.org/2000/svg">
<path d="M34.2287 11.8987C34.2287 9.61319 33.0482 7.42131 30.9471 5.80523C28.8459 4.18915 25.996 3.28125 23.0245 3.28125C20.053 3.28125 17.2032 4.18915 15.102 5.80523C13.0008 7.42131 11.8203 9.61319 11.8203 11.8987C11.8203 21.9523 6.21826 24.8248 6.21826 24.8248H39.8308C39.8308 24.8248 34.2287 21.9523 34.2287 11.8987Z" stroke="#A0A4A8" stroke-width="2" stroke-linecap="round" stroke-linejoin="round"/>
<path d="M26.255 30.5684C25.9267 31.0037 25.4555 31.365 24.8885 31.6161C24.3216 31.8673 23.6788 31.9995 23.0245 31.9995C22.3702 31.9995 21.7274 31.8673 21.1604 31.6161C20.5935 31.365 20.1222 31.0037 19.7939 30.5684" stroke="#A0A4A8" stroke-width="2" stroke-linecap="round" stroke-linejoin="round"/>
</svg>
