<svg width="262" height="202" viewBox="0 0 262 202" fill="none" xmlns="http://www.w3.org/2000/svg">
<path opacity="0.5" d="M261.821 101.146C261.821 156.671 203.298 201.683 131.106 201.683C58.9135 201.683 0.390259 156.671 0.390259 101.146C0.390259 45.6211 58.9135 0.609375 131.106 0.609375C203.298 0.609375 261.821 45.6211 261.821 101.146ZM65.7479 101.146C65.7479 128.908 95.0095 151.414 131.106 151.414C167.202 151.414 196.463 128.908 196.463 101.146C196.463 73.3835 167.202 50.8777 131.106 50.8777C95.0095 50.8777 65.7479 73.3835 65.7479 101.146Z" fill="#DBDBDB"/>
<path d="M17.9028 151.414C32.2525 170.53 54.383 185.483 80.8792 193.965C107.375 202.446 136.764 203.985 164.511 198.344L147.808 149.745C133.935 152.566 119.24 151.796 105.992 147.555C92.7443 143.314 81.679 135.838 74.5042 126.28L17.9028 151.414Z" fill="#FC6B57"/>
<path d="M17.9028 151.414C0.568864 128.323 -4.12842 100.881 4.84427 75.1252C13.817 49.3698 35.7246 27.4107 65.7479 14.0787C95.7711 0.746747 131.451 -2.86606 164.937 4.03507C198.424 10.9362 226.974 27.786 244.308 50.8776L187.707 76.0118C179.04 64.466 164.765 56.0411 148.021 52.5905C131.278 49.1399 113.438 50.9464 98.4267 57.6123C83.4151 64.2783 72.4613 75.2579 67.9749 88.1356C63.4886 101.013 65.8372 114.734 74.5042 126.28L17.9028 151.414Z" fill="#FEC64F"/>
<path d="M223.535 172.236C235.673 162.9 245.302 151.817 251.871 139.62C258.44 127.422 261.821 114.349 261.821 101.146C261.821 87.9433 258.44 74.8699 251.871 62.6723C245.302 50.4746 235.673 39.3915 223.535 30.0559L177.32 65.6009C183.389 70.2688 188.204 75.8103 191.488 81.9091C194.773 88.0079 196.463 94.5446 196.463 101.146C196.463 107.747 194.773 114.284 191.488 120.383C188.204 126.482 183.389 132.023 177.32 136.691L223.535 172.236Z" fill="#4CBC9A"/>
</svg>
