<svg width="201" height="29" viewBox="0 0 201 29" fill="none" xmlns="http://www.w3.org/2000/svg">
<path d="M7.13995 28.2999C5.11329 28.2999 3.56795 27.7299 2.50395 26.5899C1.43995 25.4246 0.907953 23.7653 0.907953 21.6119V1.31992H5.08795V21.9159C5.08795 22.8279 5.26529 23.4866 5.61995 23.8919C5.99995 24.2973 6.53195 24.4999 7.21595 24.4999C7.89995 24.4999 8.41929 24.2973 8.77395 23.8919C9.15395 23.4866 9.34395 22.8279 9.34395 21.9159V1.31992H13.372V21.6119C13.372 23.7653 12.84 25.4246 11.776 26.5899C10.712 27.7299 9.16662 28.2999 7.13995 28.2999ZM21.783 28.2999C19.7563 28.2999 18.2237 27.7299 17.185 26.5899C16.1463 25.4246 15.627 23.7653 15.627 21.6119V20.0919H19.579V21.9159C19.579 23.6386 20.301 24.4999 21.745 24.4999C22.4543 24.4999 22.9863 24.2973 23.341 23.8919C23.721 23.4613 23.911 22.7773 23.911 21.8399C23.911 20.7253 23.6577 19.7499 23.151 18.9139C22.6443 18.0526 21.707 17.0266 20.339 15.8359C18.6163 14.3159 17.413 12.9479 16.729 11.7319C16.045 10.4906 15.703 9.09725 15.703 7.55192C15.703 5.44925 16.235 3.82792 17.299 2.68792C18.363 1.52259 19.9083 0.93992 21.935 0.93992C23.9363 0.93992 25.4437 1.52259 26.457 2.68792C27.4957 3.82792 28.015 5.47459 28.015 7.62792V8.72992H24.063V7.36192C24.063 6.44992 23.8857 5.79125 23.531 5.38592C23.1763 4.95525 22.657 4.73992 21.973 4.73992C20.5797 4.73992 19.883 5.58859 19.883 7.28592C19.883 8.24859 20.1363 9.14792 20.643 9.98392C21.175 10.8199 22.125 11.8333 23.493 13.0239C25.241 14.5439 26.4443 15.9246 27.103 17.1659C27.7617 18.4073 28.091 19.8639 28.091 21.5359C28.091 23.7146 27.5463 25.3866 26.457 26.5519C25.393 27.7173 23.835 28.2999 21.783 28.2999ZM30.4877 1.31992H41.8877V5.11992H34.6677V12.1499H40.4057V15.9499H34.6677V24.1199H41.8877V27.9199H30.4877V1.31992ZM44.2924 1.31992H50.4864C52.6397 1.31992 54.2104 1.82659 55.1984 2.83992C56.1864 3.82792 56.6804 5.36059 56.6804 7.43792V9.07192C56.6804 11.8333 55.7684 13.5813 53.9444 14.3159V14.3919C54.9577 14.6959 55.667 15.3166 56.0724 16.2539C56.503 17.1913 56.7184 18.4453 56.7184 20.0159V24.6899C56.7184 25.4499 56.7437 26.0706 56.7944 26.5519C56.845 27.0079 56.9717 27.4639 57.1744 27.9199H52.9184C52.7664 27.4893 52.665 27.0839 52.6144 26.7039C52.5637 26.3239 52.5384 25.6399 52.5384 24.6519V19.7879C52.5384 18.5719 52.3357 17.7233 51.9304 17.2419C51.5504 16.7606 50.879 16.5199 49.9164 16.5199H48.4724V27.9199H44.2924V1.31992ZM49.9924 12.7199C50.8284 12.7199 51.449 12.5046 51.8544 12.0739C52.285 11.6433 52.5004 10.9213 52.5004 9.90792V7.85592C52.5004 6.89325 52.323 6.19659 51.9684 5.76592C51.639 5.33525 51.107 5.11992 50.3724 5.11992H48.4724V12.7199H49.9924Z" fill="#3C7FBD"/>
<path d="M65.7045 1.31992H72.0885C74.1658 1.31992 75.7238 1.87725 76.7625 2.99192C77.8012 4.10659 78.3205 5.74059 78.3205 7.89392V21.3459C78.3205 23.4993 77.8012 25.1333 76.7625 26.2479C75.7238 27.3626 74.1658 27.9199 72.0885 27.9199H65.7045V1.31992ZM72.0125 24.1199C72.6965 24.1199 73.2158 23.9173 73.5705 23.5119C73.9505 23.1066 74.1405 22.4479 74.1405 21.5359V7.70392C74.1405 6.79192 73.9505 6.13325 73.5705 5.72792C73.2158 5.32259 72.6965 5.11992 72.0125 5.11992H69.8845V24.1199H72.0125ZM84.2978 1.31992H89.9598L94.2918 27.9199H90.1118L89.3518 22.6379V22.7139H84.6018L83.8418 27.9199H79.9658L84.2978 1.31992ZM88.8578 19.1039L86.9958 5.95592H86.9198L85.0958 19.1039H88.8578ZM101.642 28.2999C99.6157 28.2999 98.0831 27.7299 97.0444 26.5899C96.0057 25.4246 95.4864 23.7653 95.4864 21.6119V20.0919H99.4384V21.9159C99.4384 23.6386 100.16 24.4999 101.604 24.4999C102.314 24.4999 102.846 24.2973 103.2 23.8919C103.58 23.4613 103.77 22.7773 103.77 21.8399C103.77 20.7253 103.517 19.7499 103.01 18.9139C102.504 18.0526 101.566 17.0266 100.198 15.8359C98.4757 14.3159 97.2724 12.9479 96.5884 11.7319C95.9044 10.4906 95.5624 9.09725 95.5624 7.55192C95.5624 5.44925 96.0944 3.82792 97.1584 2.68792C98.2224 1.52259 99.7677 0.93992 101.794 0.93992C103.796 0.93992 105.303 1.52259 106.316 2.68792C107.355 3.82792 107.874 5.47459 107.874 7.62792V8.72992H103.922V7.36192C103.922 6.44992 103.745 5.79125 103.39 5.38592C103.036 4.95525 102.516 4.73992 101.832 4.73992C100.439 4.73992 99.7424 5.58859 99.7424 7.28592C99.7424 8.24859 99.9957 9.14792 100.502 9.98392C101.034 10.8199 101.984 11.8333 103.352 13.0239C105.1 14.5439 106.304 15.9246 106.962 17.1659C107.621 18.4073 107.95 19.8639 107.95 21.5359C107.95 23.7146 107.406 25.3866 106.316 26.5519C105.252 27.7173 103.694 28.2999 101.642 28.2999ZM110.347 1.31992H114.527V12.1499H119.011V1.31992H123.191V27.9199H119.011V15.9499H114.527V27.9199H110.347V1.31992ZM126.304 1.31992H132.612C134.765 1.31992 136.336 1.82659 137.324 2.83992C138.312 3.82792 138.806 5.36059 138.806 7.43792V8.50192C138.806 9.86992 138.578 10.9846 138.122 11.8459C137.691 12.7073 137.02 13.3279 136.108 13.7079V13.7839C138.185 14.4933 139.224 16.3426 139.224 19.3319V21.6119C139.224 23.6639 138.679 25.2346 137.59 26.3239C136.526 27.3879 134.955 27.9199 132.878 27.9199H126.304V1.31992ZM132.118 12.1499C132.954 12.1499 133.575 11.9346 133.98 11.5039C134.411 11.0733 134.626 10.3513 134.626 9.33792V7.85592C134.626 6.89325 134.449 6.19659 134.094 5.76592C133.765 5.33525 133.233 5.11992 132.498 5.11992H130.484V12.1499H132.118ZM132.878 24.1199C133.613 24.1199 134.157 23.9299 134.512 23.5499C134.867 23.1446 135.044 22.4606 135.044 21.4979V19.1799C135.044 17.9639 134.829 17.1279 134.398 16.6719C133.993 16.1906 133.309 15.9499 132.346 15.9499H130.484V24.1199H132.878ZM147.709 28.2999C145.657 28.2999 144.087 27.7173 142.997 26.5519C141.908 25.3866 141.363 23.7399 141.363 21.6119V7.62792C141.363 5.49992 141.908 3.85325 142.997 2.68792C144.087 1.52259 145.657 0.93992 147.709 0.93992C149.761 0.93992 151.332 1.52259 152.421 2.68792C153.511 3.85325 154.055 5.49992 154.055 7.62792V21.6119C154.055 23.7399 153.511 25.3866 152.421 26.5519C151.332 27.7173 149.761 28.2999 147.709 28.2999ZM147.709 24.4999C149.153 24.4999 149.875 23.6259 149.875 21.8779V7.36192C149.875 5.61392 149.153 4.73992 147.709 4.73992C146.265 4.73992 145.543 5.61392 145.543 7.36192V21.8779C145.543 23.6259 146.265 24.4999 147.709 24.4999ZM160.038 1.31992H165.7L170.032 27.9199H165.852L165.092 22.6379V22.7139H160.342L159.582 27.9199H155.706L160.038 1.31992ZM164.598 19.1039L162.736 5.95592H162.66L160.836 19.1039H164.598ZM172.06 1.31992H178.254C180.407 1.31992 181.978 1.82659 182.966 2.83992C183.954 3.82792 184.448 5.36059 184.448 7.43792V9.07192C184.448 11.8333 183.536 13.5813 181.712 14.3159V14.3919C182.725 14.6959 183.435 15.3166 183.84 16.2539C184.271 17.1913 184.486 18.4453 184.486 20.0159V24.6899C184.486 25.4499 184.511 26.0706 184.562 26.5519C184.613 27.0079 184.739 27.4639 184.942 27.9199H180.686C180.534 27.4893 180.433 27.0839 180.382 26.7039C180.331 26.3239 180.306 25.6399 180.306 24.6519V19.7879C180.306 18.5719 180.103 17.7233 179.698 17.2419C179.318 16.7606 178.647 16.5199 177.684 16.5199H176.24V27.9199H172.06V1.31992ZM177.76 12.7199C178.596 12.7199 179.217 12.5046 179.622 12.0739C180.053 11.6433 180.268 10.9213 180.268 9.90792V7.85592C180.268 6.89325 180.091 6.19659 179.736 5.76592C179.407 5.33525 178.875 5.11992 178.14 5.11992H176.24V12.7199H177.76ZM187.386 1.31992H193.77C195.847 1.31992 197.405 1.87725 198.444 2.99192C199.483 4.10659 200.002 5.74059 200.002 7.89392V21.3459C200.002 23.4993 199.483 25.1333 198.444 26.2479C197.405 27.3626 195.847 27.9199 193.77 27.9199H187.386V1.31992ZM193.694 24.1199C194.378 24.1199 194.897 23.9173 195.252 23.5119C195.632 23.1066 195.822 22.4479 195.822 21.5359V7.70392C195.822 6.79192 195.632 6.13325 195.252 5.72792C194.897 5.32259 194.378 5.11992 193.694 5.11992H191.566V24.1199H193.694Z" fill="#52575C"/>
</svg>
